<svg id="Layer_1" data-name="Layer 1" xmlns="http://www.w3.org/2000/svg" viewBox="0 0 437 336"><defs><style>.cls-1{fill:#fff;}.cls-2{fill:none;stroke:#231f20;stroke-miterlimit:10;}</style></defs><title>logo</title><path class="cls-1" d="M-3,398V-51.9h449.8V398ZM128.18,191.27c-3,0-5.27-.06-7.57,0-9.1.3-18.21.59-27.31,1-5.27.23-8.53,3.43-10.07,8.09-1.76,5.32-1.92,10.6,2.26,15.27a12.05,12.05,0,0,0,10.07,4.17c10.76-.24,21.53-.08,32.72-.08v6.1c0,16.5.21,33-.09,49.5a62.65,62.65,0,0,0,4.12,24.18c5.55,14.28,20.82,26.37,36.75,26.31,59-.22,118-.09,177-.1a28,28,0,0,0,5.44-.36c21.09-4.21,34-24.37,34.19-43.56.18-18.83,0-37.66,0-56.5,0-1.76.15-3.51.24-5.57,10.55,0,20.57-.56,30.5.16,9.67.69,16.19-4.76,15.35-15.52-.58-7.46-4.63-12-12.07-12.08-9.5,0-19,0-28.5,0-1.75,0-3.51-.15-5.7-.25V164.7H128.18Zm4.9-134c-9.62-.17-18,1.9-24.94,8.48-9,8.44-12.09,19-11.79,30.84.09,3.52-.87,5.48-4.43,6.45a103,103,0,0,0-12.52,4.35C56.29,117,34.92,128.89,21.17,151.05c-1,1.54-3.27,2.57-5.16,3.15-5,1.51-6.33,3.72-5.73,10.34.41,4.48,3.06,6.49,7.34,6.14,6.06-.5,12.1-1.23,18.13-2C46.5,167.39,57.25,166,68,164.59c11.53-1.56,23-3.24,34.57-4.86Q116,157.84,129.35,156c10.57-1.44,21.13-2.89,31.71-4.25,11.4-1.46,22.82-2.75,34.21-4.26,11.21-1.49,22.4-3.18,33.6-4.75,9.74-1.37,19.5-2.62,29.23-4.06,3.57-.53,6.18-4.82,5.56-9.25-.53-3.81-2.19-7.25-6.72-7-4.24.19-7.16-1.57-10-4.39a54,54,0,0,0-8.46-6.76c-20-13.07-42.67-17.25-66-18.86-4-.27-6.16-.88-6.94-5.6C162.72,69.76,148.73,55.81,133.07,57.24Zm226.51,82.58c7.8-9,13.85-18.77,9.88-31-2-6.23-6.39-11.75-10-17.43-5.44-8.63-5.2-17,1.19-25,2.36-3,5.26-5.54,7.36-8.67,1-1.47.63-3.83.88-5.78-2,.39-4.55.17-6,1.3a34.69,34.69,0,0,0-6.2,7C352.43,66,349.17,72,349.12,79.65s3.69,13.55,7.77,19.29c8.07,11.36,8.94,22.58.17,33.91C354.63,136,355.32,138.15,359.58,139.82ZM324.22,108.6c12.41-13.82,15.17-27.76,3.43-43.25-9.18-12.13-9.8-19.45-1.43-31.37,1.89-2.69,4.51-4.87,6.31-7.61,1-1.47.93-3.6,1.34-5.43-1.93.3-4.62-.1-5.66,1-4,4.33-8.36,8.72-10.9,13.92-2.21,4.53-3.57,10.41-2.74,15.25,1,5.86,4,11.73,7.4,16.77,7.67,11.41,8.55,22.48.12,33.61C319.18,105.34,320,107.29,324.22,108.6ZM296.3,154.11l1.93.1a43.87,43.87,0,0,0,3.67-4.06c5.45-7.71,9.72-16.14,6.55-25.64-2.09-6.25-6.05-11.94-9.58-17.62-4.5-7.24-6.33-14.57-1.46-22.16,2.91-4.54,6.74-8.48,9.71-13,.86-1.3.2-3.62.23-5.46-1.52.28-3.3.15-4.48.93a24.39,24.39,0,0,0-4.64,4.51c-6.33,7.25-11.16,15-10.05,25.36.82,7.67,5.23,13.36,9.2,19.35,6,9.09,6.8,18.26.89,27.68-1,1.66-2.78,3.11-3.18,4.89C294.74,150.54,295.84,152.4,296.3,154.11Z"/><path class="cls-2" d="M128.18,191.27V164.7H385.55V192c2.19.1,3.95.25,5.7.25,9.5,0,19,0,28.5,0,7.43,0,11.48,4.62,12.07,12.08.84,10.76-5.68,16.21-15.35,15.52-9.93-.71-20-.16-30.5-.16-.09,2.05-.24,3.81-.24,5.57,0,18.83.13,37.67,0,56.5-.18,19.19-13.11,39.35-34.19,43.56a28,28,0,0,1-5.44.36c-59,0-118-.12-177,.1-15.93.06-31.2-12-36.75-26.31a62.65,62.65,0,0,1-4.12-24.18c.3-16.49.09-33,.09-49.5v-6.1c-11.19,0-22-.16-32.72.08a12.05,12.05,0,0,1-10.07-4.17c-4.18-4.67-4-9.95-2.26-15.27,1.54-4.66,4.8-7.86,10.07-8.09,9.1-.39,18.21-.69,27.31-1C122.91,191.21,125.22,191.27,128.18,191.27Z"/><path class="cls-2" d="M133.07,57.24c15.66-1.43,29.65,12.53,32.47,29.51.79,4.72,3,5.33,6.94,5.6,23.31,1.61,45.94,5.79,66,18.86a54,54,0,0,1,8.46,6.76c2.86,2.83,5.77,4.58,10,4.39,4.53-.2,6.19,3.24,6.72,7,.62,4.43-2,8.73-5.56,9.25-9.73,1.44-19.49,2.7-29.23,4.06-11.2,1.57-22.38,3.26-33.6,4.75-11.39,1.51-22.82,2.79-34.21,4.26-10.58,1.36-21.15,2.81-31.71,4.25q-13.4,1.83-26.78,3.73C91,161.35,79.52,163,68,164.59c-10.74,1.45-21.49,2.8-32.24,4.12-6,.74-12.07,1.47-18.13,2-4.28.35-6.93-1.66-7.34-6.14-.6-6.62.77-8.83,5.73-10.34,1.89-.58,4.2-1.61,5.16-3.15C34.92,128.89,56.29,117,79.39,107.35A103,103,0,0,1,91.92,103c3.56-1,4.52-2.92,4.43-6.45-.3-11.84,2.82-22.4,11.79-30.84C115.12,59.14,123.46,57.07,133.07,57.24ZM116.49,96.17l29.39-4.12c.25-7.66-7.2-13.4-15.27-12.31C120.13,81.17,114.48,87.6,116.49,96.17Z"/><path class="cls-2" d="M359.58,139.82c-4.26-1.66-4.95-3.82-2.52-7,8.77-11.34,7.9-22.55-.17-33.91-4.08-5.74-7.83-11.56-7.77-19.29s3.31-13.62,7.58-19.36a34.69,34.69,0,0,1,6.2-7c1.47-1.13,4-.91,6-1.3-.25,2,.1,4.32-.88,5.78-2.09,3.13-5,5.7-7.36,8.67-6.39,8-6.62,16.38-1.19,25,3.57,5.67,7.94,11.19,10,17.43C373.43,121,367.38,130.78,359.58,139.82Z"/><path class="cls-2" d="M324.22,108.6c-4.24-1.31-5-3.26-2.13-7.1,8.43-11.13,7.55-22.2-.12-33.61-3.38-5-6.39-10.9-7.4-16.77-.83-4.84.53-10.72,2.74-15.25,2.54-5.19,6.89-9.59,10.9-13.92,1-1.12,3.73-.72,5.66-1-.41,1.83-.37,4-1.34,5.43-1.81,2.73-4.43,4.92-6.31,7.61-8.37,11.92-7.75,19.25,1.43,31.37C339.39,80.84,336.64,94.77,324.22,108.6Z"/><path class="cls-2" d="M296.3,154.11c-.46-1.71-1.56-3.57-1.21-5.1.4-1.78,2.14-3.23,3.18-4.89,5.91-9.42,5.14-18.58-.89-27.68-4-6-8.38-11.68-9.2-19.35-1.11-10.38,3.72-18.1,10.05-25.36a24.39,24.39,0,0,1,4.64-4.51c1.19-.78,3-.65,4.48-.93,0,1.85.63,4.16-.23,5.46-3,4.5-6.81,8.44-9.71,13-4.86,7.59-3,14.93,1.46,22.16,3.53,5.68,7.5,11.37,9.58,17.62,3.17,9.5-1.1,17.92-6.55,25.64a43.87,43.87,0,0,1-3.67,4.06Z"/><path class="cls-1" d="M116.49,96.17c-2-8.57,3.63-15,14.12-16.43,8.06-1.1,15.52,4.65,15.27,12.31Z"/></svg>